<svg viewBox="0 0 36 42" xmlns="http://www.w3.org/2000/svg" role="img" style="--on: #262626; --off: #E5E5E5; --dur: 0.750s">
  <title>Loading</title>
  <style>
    circle { fill: var(--off); }
    circle.on { fill: var(--on); }
    @media (prefers-reduced-motion: reduce) { circle { animation: none !important; } }
    @keyframes f00100 { 0% { opacity: 0; } 39.99% { opacity: 0; } 40.00% { opacity: 1; } 59.99% { opacity: 1; } 60.00% { opacity: 0; } 100% { opacity: 0; } }
    @keyframes f10010 { 0% { opacity: 1; } 19.99% { opacity: 1; } 20.00% { opacity: 0; } 59.99% { opacity: 0; } 60.00% { opacity: 1; } 79.99% { opacity: 1; } 80.00% { opacity: 0; } 100% { opacity: 0; } }
  </style>
  <circle cx="3" cy="3" r="2" />
  <circle cx="9" cy="3" r="2" />
  <circle cx="15" cy="3" r="2" />
  <circle cx="21" cy="3" r="2" />
  <circle cx="27" cy="3" r="2" />
  <circle cx="33" cy="3" r="2" />
  <circle cx="3" cy="9" r="2" />
  <circle cx="9" cy="9" r="2" />
  <circle cx="15" cy="9" r="2" />
  <circle cx="21" cy="9" r="2" />
  <circle cx="27" cy="9" r="2" />
  <circle cx="33" cy="9" r="2" />
  <circle cx="3" cy="15" r="2" />
  <circle cx="9" cy="15" r="2" />
  <circle cx="15" cy="15" r="2" />
  <circle class="on" cx="15" cy="15" r="2" opacity="0" style="animation: f00100 var(--dur) linear infinite" />
  <circle cx="21" cy="15" r="2" />
  <circle class="on" cx="21" cy="15" r="2" />
  <circle cx="27" cy="15" r="2" />
  <circle cx="33" cy="15" r="2" />
  <circle cx="3" cy="21" r="2" />
  <circle cx="9" cy="21" r="2" />
  <circle cx="15" cy="21" r="2" />
  <circle class="on" cx="15" cy="21" r="2" opacity="1" style="animation: f10010 var(--dur) linear infinite" />
  <circle cx="21" cy="21" r="2" />
  <circle class="on" cx="21" cy="21" r="2" opacity="1" style="animation: f10010 var(--dur) linear infinite" />
  <circle cx="27" cy="21" r="2" />
  <circle cx="33" cy="21" r="2" />
  <circle cx="3" cy="27" r="2" />
  <circle cx="9" cy="27" r="2" />
  <circle cx="15" cy="27" r="2" />
  <circle class="on" cx="15" cy="27" r="2" opacity="1" style="animation: f10010 var(--dur) linear infinite" />
  <circle cx="21" cy="27" r="2" />
  <circle cx="27" cy="27" r="2" />
  <circle cx="33" cy="27" r="2" />
  <circle cx="3" cy="33" r="2" />
  <circle cx="9" cy="33" r="2" />
  <circle cx="15" cy="33" r="2" />
  <circle cx="21" cy="33" r="2" />
  <circle cx="27" cy="33" r="2" />
  <circle cx="33" cy="33" r="2" />
  <circle cx="3" cy="39" r="2" />
  <circle cx="9" cy="39" r="2" />
  <circle cx="15" cy="39" r="2" />
  <circle cx="21" cy="39" r="2" />
  <circle cx="27" cy="39" r="2" />
  <circle cx="33" cy="39" r="2" />
</svg>
